PathFileType	4	(X/Y/Z)	/Users/itak/Documents/Research/Walk-IL/dataset/trc/00028_00004.trc
DataRate	CameraRate	NumFrames	NumMarkers	Units	OrigDataRate	OrigDataStartFrame	OrigNumFrames
100.000000	100.000000	4	53	mm	100.000000	237	633
Frame#	Time	RPSI			LPSI			L3			STRN			T10			C7			CLAV			RBAK			LBAK			LSHO			LUPA			LAEL			LAOL			LWTS			LWPS			LFRA			LIFD			LHPS			LHTS			RSHO			RUPA			RAEL			RAOL			RWTS			RWPS			RFRA			RIFD			RHTS			RHPS			RBHD			LFHD			RFHD			LBHD			LHIP			RHIP			RASI			LASI			LKNE			LTHI			LANK			LTIP			LTOE			LMT1			LMT5			LHEE			RKNE			RTHI			RANK			RTIP			RTOE			RMT1			RMT5			RHEE			
		X1	Y1	Z1	X2	Y2	Z2	X3	Y3	Z3	X4	Y4	Z4	X5	Y5	Z5	X6	Y6	Z6	X7	Y7	Z7	X8	Y8	Z8	X9	Y9	Z9	X10	Y10	Z10	X11	Y11	Z11	X12	Y12	Z12	X13	Y13	Z13	X14	Y14	Z14	X15	Y15	Z15	X16	Y16	Z16	X17	Y17	Z17	X18	Y18	Z18	X19	Y19	Z19	X20	Y20	Z20	X21	Y21	Z21	X22	Y22	Z22	X23	Y23	Z23	X24	Y24	Z24	X25	Y25	Z25	X26	Y26	Z26	X27	Y27	Z27	X28	Y28	Z28	X29	Y29	Z29	X30	Y30	Z30	X31	Y31	Z31	X32	Y32	Z32	X33	Y33	Z33	X34	Y34	Z34	X35	Y35	Z35	X36	Y36	Z36	X37	Y37	Z37	X38	Y38	Z38	X39	Y39	Z39	X40	Y40	Z40	X41	Y41	Z41	X42	Y42	Z42	X43	Y43	Z43	X44	Y44	Z44	X45	Y45	Z45	X46	Y46	Z46	X47	Y47	Z47	X48	Y48	Z48	X49	Y49	Z49	X50	Y50	Z50	X51	Y51	Z51	X52	Y52	Z52	X53	Y53	Z53	

238	2.37	-125.7137832641602	1018.3037109375	-414.0394287109375	-185.3207550048828	1018.501586914062	-567.6151123046875	-163.293212890625	1079.228759765625	-492.4648132324219	50.08366394042969	1264.495971679688	-558.3115234375	-185.4388732910156	1225.007080078125	-477.9129943847656	-129.0233764648438	1491.758666992188	-494.9247741699219	14.43798923492432	1391.037353515625	-544.2844848632812	-162.8791046142578	1353.347045898438	-406.4827575683594	-182.1961669921875	1457.269287109375	-580.496826171875	-111.5255355834961	1462.190551757812	-683.9603881835938	-186.9073333740234	1348.979125976562	-748.1587524414062	-237.6634368896484	1140.7236328125	-780.603271484375	-254.7235717773438	1127.082275390625	-676.6087646484375	-176.0657806396484	875.1387939453125	-770.66552734375	-264.5962829589844	874.210693359375	-783.305419921875	-247.1689453125	1024.923095703125	-795.8987426757812	-173.6207122802734	688.0750732421875	-766.5516357421875	-247.4760437011719	780.293701171875	-796.138916015625	-176.0702056884766	780.1790771484375	-791.629638671875	-3.677870273590088	1461.8994140625	-355.0555725097656	-3.071211576461792	1393.202880859375	-283.6926879882812	-65.06130981445312	1135.323120117188	-235.6545867919922	-95.11009216308594	1107.127563476562	-327.6275634765625	38.29944610595703	871.800537109375	-302.6369018554688	-5.27029275894165	855.8361206054688	-222.822509765625	-54.01960372924805	1056.83642578125	-222.3444213867188	46.7259521484375	688.5778198242188	-330.7755432128906	71.63938140869141	762.6738891601562	-302.1545104980469	29.88297080993652	754.6773681640625	-240.2708282470703	-30.27154922485352	1674.23681640625	-584.7218627929688	121.3474197387695	1643.305297851562	-430.6481323242188	140.8058166503906	1652.543579101562	-526.8837890625	-51.26469421386719	1657.74755859375	-443.0153198242188	-124.1317520141602	925.2513427734375	-711.56005859375	4.341732978820801	893.3401489257812	-361.8733825683594	82.17417144775391	929.3787841796875	-461.6072998046875	2.054098606109619	971.5087280273438	-681.1685791015625	107.7366638183594	537.94384765625	-737.406494140625	16.49131202697754	649.6663208007812	-752.65283203125	110.2020797729492	38.56673431396484	-806.4490966796875	86.43634033203125	289.27685546875	-784.7819213867188	326.0502014160156	56.89724731445312	-737.5906982421875	267.5294494628906	55.4077033996582	-722.4534301757812	233.2562561035156	48.28279495239258	-824.5142822265625	41.94320297241211	38.66524124145508	-753.2044067382812	-95.35591125488281	466.6408996582031	-425.2923889160156	-5.330083847045898	725.3715209960938	-384.9101257324219	-432.597412109375	100.7263031005859	-320.5776062011719	-172.2524261474609	357.2915954589844	-405.4128723144531	-351.3556518554688	38.3936653137207	-522.9365234375	-397.3778076171875	62.64961624145508	-494.3408508300781	-339.193603515625	38.49332427978516	-420.0133972167969	-491.3974609375	140.5572204589844	-312.7942810058594	
239	2.38	-116.3504486083984	1018.371154785156	-419.5069274902344	-174.5737915039062	1019.010498046875	-573.4859619140625	-153.4939880371094	1079.67041015625	-498.2393188476562	60.36630630493164	1265.150024414062	-562.0548095703125	-176.3244323730469	1225.310546875	-484.7913818359375	-120.0328674316406	1492.192016601562	-501.8446350097656	24.2687873840332	1391.645629882812	-548.7219848632812	-155.0863800048828	1353.837768554688	-413.6776733398438	-171.9130249023438	1457.55029296875	-588.2339477539062	-99.42389678955078	1462.551635742188	-690.5360717773438	-173.2766418457031	1349.043212890625	-756.045166015625	-222.7200927734375	1140.615844726562	-789.3216552734375	-241.6405029296875	1127.008666992188	-685.662353515625	-161.8829956054688	874.7459716796875	-777.9995727539062	-250.1419372558594	874.1693115234375	-792.3636474609375	-232.0561370849609	1024.817749023438	-804.6724243164062	-160.6093292236328	687.4666137695312	-773.327392578125	-233.1161956787109	780.1737060546875	-804.6637573242188	-161.8294830322266	779.697998046875	-798.8046875	3.093314170837402	1462.74169921875	-360.0138854980469	2.705564975738525	1394.1962890625	-288.5272827148438	-60.17401123046875	1136.610595703125	-241.1578216552734	-88.45816040039062	1108.038940429688	-333.5545654296875	42.07819747924805	871.5693969726562	-303.3962097167969	-3.485988616943359	856.8786010742188	-224.4880676269531	-49.85457992553711	1058.347045898438	-227.0240325927734	49.25772857666016	687.9569702148438	-329.2961120605469	74.28682708740234	762.0504760742188	-300.8809204101562	30.88430786132812	755.1888427734375	-240.0238494873047	-20.20151710510254	1674.90625	-589.9521484375	128.9333343505859	1644.006591796875	-433.4641723632812	149.9249114990234	1653.272705078125	-529.3333740234375	-43.47676849365234	1658.351196289062	-448.6475524902344	-111.2929611206055	926.7650146484375	-717.2750854492188	13.26397132873535	892.9191284179688	-366.34619140625	91.77915954589844	929.8737182617188	-465.1250305175781	14.3922758102417	972.54541015625	-685.438720703125	120.5429153442383	538.571044921875	-741.1954345703125	30.16041946411133	651.3701782226562	-756.46240234375	111.0618896484375	37.4258918762207	-807.4952392578125	94.62351226806641	289.2657165527344	-787.937744140625	327.8866882324219	50.72052001953125	-738.2493286132812	269.1012268066406	51.49450302124023	-723.3953247070312	234.4318695068359	43.86099624633789	-825.5057373046875	42.5886116027832	40.01999282836914	-754.3477783203125	-80.95509338378906	464.77734375	-430.2953491210938	4.860966205596924	724.8494262695312	-389.5748901367188	-427.9450988769531	107.4267044067383	-322.9586791992188	-159.9133453369141	356.5546875	-409.5536804199219	-350.6003112792969	38.43897247314453	-523.143798828125	-394.3315124511719	64.92784881591797	-495.5562744140625	-338.0849609375	38.25434112548828	-420.8163146972656	-484.4778442382812	150.5590362548828	-316.46337890625	
240	2.39	-107.146842956543	1018.52490234375	-424.7683715820312	-163.8867797851562	1019.642517089844	-579.14111328125	-143.7826385498047	1080.297607421875	-503.7977294921875	70.66178894042969	1265.967407226562	-565.6103515625	-167.1670684814453	1225.7998046875	-491.4470825195312	-110.9792251586914	1492.796752929688	-508.6264038085938	34.11676788330078	1392.441284179688	-553.0035400390625	-147.2086791992188	1354.533325195312	-420.6820373535156	-161.5629272460938	1457.995483398438	-595.7992553710938	-87.21816253662109	1463.119750976562	-696.901123046875	-159.4528961181641	1349.348266601562	-763.7578125	-207.5160675048828	1140.756469726562	-797.8922729492188	-228.3059844970703	1127.151733398438	-694.6110229492188	-147.3868103027344	874.6284790039062	-785.3261108398438	-235.3840789794922	874.375244140625	-801.4153442382812	-216.6453552246094	1024.971557617188	-813.343505859375	-147.6877593994141	686.810546875	-780.0135498046875	-218.4733276367188	780.31201171875	-813.203125	-147.3834991455078	779.379150390625	-805.9411010742188	9.911463737487793	1463.8359375	-364.9112548828125	8.576676368713379	1395.471557617188	-293.2789916992188	-55.21753692626953	1138.180786132812	-246.6011047363281	-81.73726654052734	1109.2529296875	-339.3691711425781	45.80437469482422	871.6635131835938	-304.2185363769531	-1.690135836601257	858.24267578125	-226.2579040527344	-45.64070510864258	1060.140991210938	-231.6920928955078	51.54623031616211	687.6914672851562	-327.99072265625	76.74629974365234	761.7590942382812	-299.7702331542969	31.81440353393555	756.031005859375	-239.9409332275391	-10.14291954040527	1675.686767578125	-595.0667724609375	136.5378723144531	1644.891357421875	-436.2496337890625	159.02392578125	1654.156860351562	-531.73974609375	-35.65048599243164	1659.10791015625	-454.1878051757812	-98.71135711669922	928.4202270507812	-722.7396850585938	22.13558006286621	892.6375732421875	-370.6715393066406	101.2411804199219	930.564453125	-468.4538879394531	26.55257797241211	973.7333984375	-689.4617309570312	132.4881591796875	538.968505859375	-745.2435302734375	42.82977294921875	652.8276977539062	-760.5814819335938	111.590690612793	36.42204666137695	-808.5584106445312	102.0104675292969	289.2395935058594	-791.1876220703125	329.3328857421875	45.90739440917969	-739.5274047851562	270.3823547363281	48.73062896728516	-724.8153076171875	235.0381011962891	40.25634765625	-826.8871459960938	43.04437637329102	41.10822677612305	-755.4359741210938	-65.45164489746094	462.869873046875	-435.321533203125	15.32311630249023	724.4929809570312	-394.1806030273438	-422.4230651855469	114.8705673217773	-325.7424621582031	-146.4415588378906	355.8583679199219	-413.8661804199219	-349.4590148925781	38.39622116088867	-523.5164794921875	-390.7211608886719	67.52944946289062	-496.9362182617188	-336.7273559570312	38.25447082519531	-421.6814880371094	-476.3421020507812	161.3475952148438	-320.6952209472656	
241	2.4	-98.17766571044922	1018.747253417969	-429.8655090332031	-153.2891845703125	1020.385620117188	-584.65380859375	-134.1691741943359	1081.06005859375	-509.2213134765625	80.92559051513672	1266.8955078125	-568.9422607421875	-157.9596710205078	1226.446166992188	-497.9143981933594	-101.8911056518555	1493.543701171875	-515.2412719726562	43.97050094604492	1393.380126953125	-557.0995483398438	-139.2758331298828	1355.395751953125	-427.4840393066406	-151.1555786132812	1458.562744140625	-603.1752319335938	-74.92335510253906	1463.842041015625	-703.0341796875	-145.4723510742188	1349.8486328125	-771.2718505859375	-192.1251831054688	1141.108276367188	-806.3038330078125	-214.7984313964844	1127.464233398438	-703.4461059570312	-132.5890350341797	874.7669067382812	-792.6296997070312	-220.3105010986328	874.7843627929688	-810.4564819335938	-200.9884033203125	1025.3447265625	-821.9044189453125	-134.6159820556641	686.2334594726562	-786.6796264648438	-203.5131530761719	780.66650390625	-821.7622680664062	-132.7146606445312	779.2067260742188	-813.0280151367188	16.76714324951172	1465.131958007812	-369.7001037597656	14.50859069824219	1396.97412109375	-297.9119262695312	-50.2147331237793	1139.977416992188	-251.9110717773438	-74.98822784423828	1110.717529296875	-344.9977416992188	49.48503875732422	872.052001953125	-305.1257019042969	0.1626950204372406	859.8718872070312	-228.1286315917969	-41.40005111694336	1062.154052734375	-236.2982025146484	53.62248611450195	687.7511596679688	-326.9495239257812	79.04334259033203	761.77294921875	-298.8931579589844	32.73481750488281	757.1541748046875	-240.0560455322266	-0.1208287701010704	1676.546020507812	-600.0479736328125	144.1416015625	1645.94580078125	-438.9864196777344	168.0802154541016	1655.18212890625	-534.0879516601562	-27.80345153808594	1659.98828125	-459.6152038574219	-86.41101837158203	930.1284790039062	-727.9744262695312	30.85430526733398	892.48095703125	-374.8408813476562	110.5121536254883	931.3965454101562	-471.5643005371094	38.50929641723633	974.9817504882812	-693.2300415039062	143.5005950927734	539.0777587890625	-749.4483032226562	54.37744903564453	653.8746337890625	-764.9461669921875	111.9058609008789	35.57199096679688	-809.5504150390625	108.5947875976562	289.159423828125	-794.3771362304688	330.437255859375	42.36088180541992	-741.0468139648438	271.4044189453125	46.93434906005859	-726.3967895507812	235.2776031494141	37.46186828613281	-828.4082641601562	43.36265563964844	41.90873718261719	-756.4339599609375	-48.94598007202148	460.9714660644531	-440.3429260253906	25.99213027954102	724.2943115234375	-398.6903076171875	-415.9183044433594	123.1130981445312	-328.981201171875	-131.8675537109375	355.2298583984375	-418.3784790039062	-347.7787780761719	38.20969009399414	-524.0950927734375	-386.476318359375	70.46128845214844	-498.4870910644531	-335.0029602050781	38.66595458984375	-422.6134643554688	-466.955322265625	172.8333129882812	-325.5647583007812	
